<svg width="1920" height="1098" viewBox="0 0 1920 1098" fill="none" xmlns="http://www.w3.org/2000/svg">
<path d="M2543.7 74.4313C2181.91 129.16 1614.68 239.918 1903.25 589.551C2270.48 1034.48 3167.86 917.925 2769.3 1261.34" stroke="white" stroke-width="8.2894"/>
<path d="M2415.23 59.6888C2053.44 114.418 1486.21 225.175 1774.78 574.809C2142 1019.74 3039.39 903.182 2640.83 1246.6" stroke="white" stroke-width="8.2894"/>
<path d="M2287.33 40.5926C1925.54 95.3215 1358.31 206.079 1646.88 555.713C2014.11 1000.65 2911.49 884.086 2512.93 1227.5" stroke="white" stroke-width="8.2894"/>
<path d="M2159.77 19.3892C1797.97 74.1181 1230.75 184.876 1519.32 534.509C1886.54 979.442 2783.93 862.882 2385.37 1206.3" stroke="white" stroke-width="8.2894"/>
<path d="M2032.26 -2.17023C1670.47 52.5587 1103.24 163.316 1391.81 512.95C1759.04 957.883 2656.42 841.323 2257.86 1184.74" stroke="white" stroke-width="8.2894"/>
<path d="M1904.6 -22.7658C1542.81 31.9631 975.577 142.721 1264.15 492.354C1631.37 937.288 2528.76 820.728 2130.2 1164.14" stroke="white" stroke-width="8.2894"/>
<path d="M1776.64 -41.431C1414.84 13.2979 847.616 124.056 1136.19 473.689C1503.41 918.622 2400.8 802.062 2002.24 1145.48" stroke="white" stroke-width="8.2894"/>
<path d="M1648.33 -57.4768C1286.53 -2.74789 719.301 108.01 1007.87 457.643C1375.1 902.577 2272.48 786.017 1873.93 1129.43" stroke="white" stroke-width="8.2894"/>
<path d="M1519.66 -70.4371C1157.87 -15.7082 590.637 95.0494 879.208 444.683C1246.43 889.616 2143.82 773.056 1745.26 1116.47" stroke="white" stroke-width="8.2894"/>
<path d="M1389.91 -80.1367C1028.11 -25.4078 460.881 85.3498 749.452 434.983C1116.68 879.917 2014.07 763.357 1615.51 1106.77" stroke="white" stroke-width="8.2894"/>
<path d="M1260.81 -87.6026C899.011 -32.8737 331.782 77.8839 620.353 427.517C987.58 872.451 1884.97 755.891 1486.41 1099.3" stroke="white" stroke-width="8.2894"/>
<path d="M1131.61 -93.2032C769.818 -38.4743 202.589 72.2833 491.16 421.917C858.387 866.85 1755.77 750.29 1357.21 1093.7" stroke="white" stroke-width="8.2894"/>
<path d="M1002.35 -96.6826C640.55 -41.9537 73.3208 68.8039 361.892 418.437C729.118 863.371 1626.5 746.811 1227.95 1090.22" stroke="white" stroke-width="8.2894"/>
<path d="M873.035 -97.72C511.239 -42.9911 -55.9892 67.7664 232.582 417.4C599.808 862.333 1497.19 745.773 1098.64 1089.19" stroke="white" stroke-width="8.2894"/>
<path d="M743.733 -95.9059C381.937 -41.177 -185.291 69.5806 103.28 419.214C470.506 864.147 1367.89 747.587 969.333 1091" stroke="white" stroke-width="8.2894"/>
<path d="M614.523 -90.7014C252.727 -35.9725 -314.501 74.7851 -25.9306 424.419C341.296 869.352 1238.68 752.792 840.123 1096.21" stroke="white" stroke-width="8.2894"/>
<path d="M485.544 -81.3781C123.749 -26.6492 -443.48 84.1083 -154.909 433.742C212.318 878.675 1109.7 762.115 711.144 1105.53" stroke="white" stroke-width="8.2894"/>
<path d="M357.039 -66.9133C-4.75613 -12.1844 -571.985 98.5732 -283.414 448.207C83.8126 893.14 981.199 776.58 582.639 1119.99" stroke="white" stroke-width="8.2894"/>
<path d="M229.447 -45.8308C-132.348 8.89811 -699.577 119.656 -411.006 469.289C-43.7797 914.223 853.607 797.663 455.047 1141.08" stroke="white" stroke-width="8.2894"/>
<path d="M103.65 -16.024C-258.146 38.7049 -825.374 149.462 -536.803 499.096C-169.577 944.029 727.81 827.469 329.25 1170.88" stroke="white" stroke-width="8.2894"/>
<path d="M-18.4621 23.7346C-380.258 78.4635 -947.486 189.221 -658.916 538.855C-291.689 983.788 605.698 867.228 207.138 1210.64" stroke="white" stroke-width="8.2894"/>
</svg>
