<svg width="109" height="102" viewBox="0 0 109 102" fill="none" xmlns="http://www.w3.org/2000/svg">
<g id="Group 8">
<path id="Ellipse 3" d="M108.5 51C108.5 78.8596 84.3552 101.5 54.5 101.5C24.6448 101.5 0.5 78.8596 0.5 51C0.5 23.1404 24.6448 0.5 54.5 0.5C84.3552 0.5 108.5 23.1404 108.5 51Z" fill="#FFFCFC" stroke="black"/>
<path id="Vector" d="M70.625 56.4805C70.625 57.3476 70.4023 58.1952 69.9851 58.9162C69.5679 59.6372 68.9749 60.1991 68.2811 60.5309C67.5874 60.8627 66.8239 60.9496 66.0874 60.7804C65.3509 60.6112 64.6744 60.1937 64.1433 59.5805C63.6123 58.9674 63.2507 58.1862 63.1042 57.3358C62.9577 56.4853 63.0329 55.6038 63.3203 54.8027C63.6077 54.0016 64.0943 53.3169 64.7187 52.8352C65.3431 52.3534 66.0772 52.0963 66.8281 52.0963C67.8351 52.0963 68.8009 52.5582 69.5129 53.3804C70.225 54.2026 70.625 55.3177 70.625 56.4805ZM44.0469 52.0963C43.2959 52.0963 42.5619 52.3534 41.9375 52.8352C41.3131 53.3169 40.8264 54.0016 40.539 54.8027C40.2517 55.6038 40.1765 56.4853 40.323 57.3358C40.4695 58.1862 40.8311 58.9674 41.3621 59.5805C41.8931 60.1937 42.5696 60.6112 43.3062 60.7804C44.0427 60.9496 44.8061 60.8627 45.4999 60.5309C46.1937 60.1991 46.7867 59.6372 47.2039 58.9162C47.6211 58.1952 47.8438 57.3476 47.8438 56.4805C47.8438 55.3177 47.4437 54.2026 46.7317 53.3804C46.0196 52.5582 45.0539 52.0963 44.0469 52.0963ZM90.875 28.7141V57.9419C90.8683 64.916 88.466 71.6023 84.1951 76.5337C79.9243 81.4652 74.1337 84.2391 68.0938 84.2468H42.7813C36.7414 84.2391 30.9508 81.4652 26.6799 76.5337C22.409 71.6023 20.0067 64.916 20 57.9419V28.7141C19.9952 25.8646 20.8918 23.1111 22.5214 20.9711C24.151 18.8312 26.4013 17.4521 28.8495 17.0932C31.2977 16.7342 33.7752 17.42 35.8162 19.0218C37.8573 20.6235 39.3215 23.0308 39.9336 25.7914H70.9414C71.5535 23.0308 73.0177 20.6235 75.0588 19.0218C77.0999 17.42 79.5773 16.7342 82.0255 17.0932C84.4737 17.4521 86.7241 18.8312 88.3537 20.9711C89.9832 23.1111 90.8799 25.8646 90.875 28.7141ZM78.2188 55.0191C78.2188 51.9184 77.152 48.9447 75.2532 46.7522C73.3544 44.5597 70.7791 43.328 68.0938 43.328H42.7813C40.096 43.328 37.5206 44.5597 35.6218 46.7522C33.723 48.9447 32.6563 51.9184 32.6563 55.0191V57.9419C32.6563 61.0425 33.723 64.0162 35.6218 66.2087C37.5206 68.4012 40.096 69.633 42.7813 69.633H68.0938C70.7791 69.633 73.3544 68.4012 75.2532 66.2087C77.152 64.0162 78.2188 61.0425 78.2188 57.9419V55.0191Z" fill="#474545"/>
</g>
</svg>
