<svg width="98" height="98" viewBox="0 0 98 98" fill="none" xmlns="http://www.w3.org/2000/svg">
<path id="SF Symbol / person.crop.circle.fill" d="M49 98C75.8006 98 98 75.848 98 49C98 22.1994 75.8006 0 48.9526 0C22.152 0 0 22.1994 0 49C0 75.848 22.1994 98 49 98ZM49 56.7793C39.7028 56.7319 32.4927 48.9526 32.4927 38.7067C32.4453 29.03 39.7502 20.9661 49 20.9661C58.2023 20.9661 65.4598 29.03 65.4598 38.7067C65.4598 48.9526 58.2498 56.8742 49 56.7793ZM49 89.9835C38.3746 89.9835 27.0852 85.5721 19.9226 77.8403C25.3301 69.6815 36.1926 64.9855 49 64.9855C61.6651 64.9855 72.575 69.5866 78.03 77.8403C70.8674 85.5721 59.6254 89.9835 49 89.9835Z" fill="black"/>
</svg>
